<svg width="32" height="32" viewBox="0 0 32 32" fill="none" xmlns="http://www.w3.org/2000/svg">
<g filter="url(#filter0_b_1_84)">
<rect width="32" height="32" rx="8" fill="#ABB2BF" fill-opacity="0.5"/>
</g>
<path d="M8.27498 15.315L8.27582 15.3141L13.1744 10.2818C13.5414 9.90482 14.135 9.90622 14.5003 10.2851C14.8656 10.6639 14.8641 11.2766 14.4972 11.6537L11.2082 15.0323H23.0625C23.5803 15.0323 24 15.4655 24 16C24 16.5345 23.5803 16.9677 23.0625 16.9677H11.2083L14.4971 20.3463C14.8641 20.7234 14.8655 21.3361 14.5003 21.7149C14.135 22.0938 13.5413 22.0951 13.1744 21.7182L8.27578 16.6859L8.27493 16.685C7.90776 16.3067 7.90893 15.692 8.27498 15.315Z" fill="white"/>
<defs>
<filter id="filter0_b_1_84" x="-4" y="-4" width="40" height="40" filterUnits="userSpaceOnUse" color-interpolation-filters="sRGB">
<feFlood flood-opacity="0" result="BackgroundImageFix"/>
<feGaussianBlur in="BackgroundImage" stdDeviation="2"/>
<feComposite in2="SourceAlpha" operator="in" result="effect1_backgroundBlur_1_84"/>
<feBlend mode="normal" in="SourceGraphic" in2="effect1_backgroundBlur_1_84" result="shape"/>
</filter>
</defs>
</svg>
