<svg width="24" height="24" viewBox="0 0 24 24" fill="none" xmlns="http://www.w3.org/2000/svg">
<path fill-rule="evenodd" clip-rule="evenodd" d="M11.6324 2.77652C13.8655 2.55987 15.75 4.31667 15.75 6.51002V7.25001H8.25002V6.70002C8.25002 4.79246 9.80826 2.94678 11.6297 2.77677L11.6324 2.77652ZM6.75002 7.31196V6.70002C6.75002 4.10802 8.81108 1.53414 11.489 1.28339C14.6153 0.980885 17.25 3.44382 17.25 6.51002V7.31198C18.805 7.47742 19.9181 7.97516 20.6264 8.81724C21.5047 9.86141 21.5869 11.2337 21.4454 12.5125L21.4443 12.523L21.4442 12.523L20.695 18.5167C20.5844 19.5429 20.3255 20.667 19.4096 21.5037C18.4984 22.3361 17.0868 22.75 15 22.75H8.99997C6.91312 22.75 5.5015 22.3361 4.59036 21.5037C3.67441 20.6669 3.41551 19.5429 3.30496 18.5166L2.55576 12.523L2.55445 12.5125L2.55452 12.5125C2.41302 11.2337 2.49524 9.86141 3.37351 8.81724C4.08182 7.97514 5.19496 7.4774 6.75002 7.31196ZM4.79418 18.337L4.04485 12.3424C3.91732 11.1838 4.0504 10.3428 4.52143 9.78278C4.98602 9.23044 5.95301 8.75001 7.99997 8.75001H16C18.0469 8.75001 19.0139 9.23044 19.4785 9.78278C19.9495 10.3428 20.0826 11.1837 19.9551 12.3422L19.2058 18.337L19.2056 18.337L19.2042 18.3501C19.1044 19.282 18.8974 19.9399 18.3979 20.3963C17.8915 20.8589 16.9331 21.25 15 21.25H8.99997C7.06682 21.25 6.10844 20.8589 5.60208 20.3963C5.10252 19.9399 4.89555 19.282 4.7957 18.3501L4.79582 18.3501L4.79418 18.337ZM14.4955 12C14.4955 11.4477 14.9432 11 15.4955 11H15.5045C16.0568 11 16.5045 11.4477 16.5045 12C16.5045 12.5523 16.0568 13 15.5045 13H15.4955C14.9432 13 14.4955 12.5523 14.4955 12ZM8.49453 11C7.94224 11 7.49453 11.4477 7.49453 12C7.49453 12.5523 7.94224 13 8.49453 13H8.50351C9.0558 13 9.50351 12.5523 9.50351 12C9.50351 11.4477 9.0558 11 8.50351 11H8.49453Z" fill="#AAAAAA"/>
</svg>
