<svg width="17" height="12" viewBox="0 0 17 12" fill="none" xmlns="http://www.w3.org/2000/svg">
<path d="M1 7.33329H2C2.55228 7.33329 3 7.78101 3 8.33329V10.3333C3 10.8856 2.55228 11.3333 2 11.3333H1C0.447715 11.3333 0 10.8856 0 10.3333V8.33329C0 7.78101 0.447715 7.33329 1 7.33329ZM5.66666 5.33329H6.66666C7.21894 5.33329 7.66666 5.78101 7.66666 6.33329V10.3333C7.66666 10.8856 7.21894 11.3333 6.66666 11.3333H5.66666C5.11437 11.3333 4.66666 10.8856 4.66666 10.3333V6.33329C4.66666 5.78101 5.11437 5.33329 5.66666 5.33329ZM10.3333 2.99996H11.3333C11.8856 2.99996 12.3333 3.44767 12.3333 3.99996V10.3333C12.3333 10.8856 11.8856 11.3333 11.3333 11.3333H10.3333C9.78106 11.3333 9.33334 10.8856 9.33334 10.3333V3.99996C9.33334 3.44767 9.78106 2.99996 10.3333 2.99996ZM15 0.666626H16C16.5523 0.666626 17 1.11434 17 1.66663V10.3333C17 10.8856 16.5523 11.3333 16 11.3333H15C14.4477 11.3333 14 10.8856 14 10.3333V1.66663C14 1.11434 14.4477 0.666626 15 0.666626Z" fill="black"/>
</svg>
