<svg width="30" height="12" viewBox="0 0 30 12" fill="none" xmlns="http://www.w3.org/2000/svg">
<path d="M4.34265 0.16748C2.05017 0.16748 0.41687 1.73486 0.41687 3.88086V3.89551C0.41687 5.90234 1.83777 7.38184 3.86658 7.38184C5.31677 7.38184 6.23962 6.64209 6.62781 5.80713H6.77429C6.77429 5.8877 6.76697 5.96826 6.76697 6.04883C6.6864 8.07031 5.97595 9.71094 4.29871 9.71094C3.36853 9.71094 2.71667 9.22754 2.43835 8.48779L2.41638 8.41455H0.55603L0.570679 8.49512C0.907593 10.1138 2.35779 11.2637 4.29871 11.2637C6.9574 11.2637 8.5614 9.1543 8.5614 5.59473V5.58008C8.5614 1.77148 6.59851 0.16748 4.34265 0.16748ZM4.33533 5.93164C3.13416 5.93164 2.26257 5.05273 2.26257 3.82959V3.81494C2.26257 2.63574 3.19275 1.70557 4.3573 1.70557C5.52917 1.70557 6.4447 2.65039 6.4447 3.85889V3.87354C6.4447 5.06738 5.52917 5.93164 4.33533 5.93164ZM11.8866 4.15186C12.5604 4.15186 13.0511 3.63916 13.0511 2.99463C13.0511 2.34277 12.5604 1.8374 11.8866 1.8374C11.2201 1.8374 10.722 2.34277 10.722 2.99463C10.722 3.63916 11.2201 4.15186 11.8866 4.15186ZM11.8866 9.58643C12.5604 9.58643 13.0511 9.08105 13.0511 8.4292C13.0511 7.77734 12.5604 7.27197 11.8866 7.27197C11.2201 7.27197 10.722 7.77734 10.722 8.4292C10.722 9.08105 11.2201 9.58643 11.8866 9.58643ZM20.3387 11H22.1478V8.97119H23.5687V7.41113H22.1478V0.431152H19.4745C18.0389 2.61377 16.5375 5.04541 15.1678 7.42578V8.97119H20.3387V11ZM16.9257 7.45508V7.34521C17.951 5.55078 19.1742 3.59521 20.2582 1.93994H20.368V7.45508H16.9257ZM27.9486 11H29.8383V0.431152H27.9559L25.1947 2.37207V4.15186L27.8241 2.2915H27.9486V11Z" fill="black"/>
</svg>
