<svg width="16" height="16" viewBox="0 0 16 16" fill="none" xmlns="http://www.w3.org/2000/svg">
<g clip-path="url(#clip0_1_258)">
<path d="M8.66666 2C5.35332 2 2.66666 4.68667 2.66666 8H0.666656L3.25999 10.5933L3.30666 10.6867L5.99999 8H3.99999C3.99999 5.42 6.08666 3.33333 8.66666 3.33333C11.2467 3.33333 13.3333 5.42 13.3333 8C13.3333 10.58 11.2467 12.6667 8.66666 12.6667C7.37999 12.6667 6.21332 12.14 5.37332 11.2933L4.42666 12.24C5.51332 13.3267 7.00666 14 8.66666 14C11.98 14 14.6667 11.3133 14.6667 8C14.6667 4.68667 11.98 2 8.66666 2ZM7.99999 5.33333V8.66667L10.8333 10.3467L11.3467 9.48667L8.99999 8.09333V5.33333H7.99999Z" fill="#121212"/>
</g>
<defs>
<clipPath id="clip0_1_258">
<rect width="16" height="16" fill="white"/>
</clipPath>
</defs>
</svg>
