<svg width="16" height="17" viewBox="0 0 16 17" fill="none" xmlns="http://www.w3.org/2000/svg">
<path fill-rule="evenodd" clip-rule="evenodd" d="M0 7.62881C0 11.834 3.42366 15.2576 7.62881 15.2576C11.834 15.2576 15.2576 11.834 15.2576 7.62881C15.2576 3.42366 11.834 0 7.62881 0C3.42366 0 0 3.42366 0 7.62881ZM1.11641 7.62881C1.11641 4.04141 4.03397 1.11641 7.62881 1.11641C11.2237 1.11641 14.1412 4.04141 14.1412 7.62881C14.1412 11.2162 11.2237 14.1412 7.62881 14.1412C4.03397 14.1412 1.11641 11.2162 1.11641 7.62881ZM15.0492 15.8382C15.1608 15.9498 15.3022 16.0019 15.4437 16.0019C15.5851 16.0019 15.7265 15.9498 15.8381 15.8382C16.054 15.6223 16.054 15.2651 15.8381 15.0492L14.3496 13.5607C14.1337 13.3448 13.7765 13.3448 13.5606 13.5607C13.3448 13.7765 13.3448 14.1338 13.5606 14.3496L15.0492 15.8382Z" fill="#A6AFC7"/>
</svg>
