<svg width="16" height="12" viewBox="0 0 16 12" fill="none" xmlns="http://www.w3.org/2000/svg">
<path d="M7.66709 2.61517C9.89182 2.61526 12.0315 3.46937 13.6438 5.00096C13.7653 5.11921 13.9593 5.11772 14.0789 4.99762L15.2395 3.82729C15.3001 3.76638 15.3338 3.68387 15.3333 3.59802C15.3328 3.51217 15.2981 3.43006 15.2368 3.36986C11.0049 -0.682369 4.32857 -0.682369 0.096656 3.36986C0.035353 3.43002 0.000578818 3.5121 6.81836e-06 3.59795C-0.000551182 3.6838 0.0331603 3.76634 0.0936653 3.82729L1.25458 4.99762C1.37409 5.1179 1.56833 5.11939 1.68967 5.00096C3.30223 3.46927 5.44214 2.61516 7.66709 2.61517ZM7.66709 6.42275C8.88944 6.42267 10.0682 6.87663 10.9742 7.6964C11.0968 7.81275 11.2898 7.81022 11.4093 7.69072L12.5685 6.52039C12.6296 6.459 12.6635 6.37572 12.6626 6.28919C12.6617 6.20265 12.6262 6.12008 12.5639 6.05995C9.80472 3.49554 5.53178 3.49554 2.77262 6.05995C2.7103 6.12008 2.67476 6.20269 2.67393 6.28926C2.67312 6.37582 2.70711 6.45909 2.76829 6.52039L3.92722 7.69072C4.04669 7.81022 4.23973 7.81275 4.36228 7.6964C5.26775 6.87717 6.44555 6.42325 7.66709 6.42275ZM9.89493 9.21582C9.95693 9.15503 9.99107 9.07136 9.9893 8.98458C9.98752 8.89781 9.95 8.81561 9.88557 8.75739C8.60491 7.67512 6.72924 7.67512 5.44858 8.75739C5.38411 8.81556 5.34651 8.89774 5.34467 8.98451C5.34283 9.07129 5.37692 9.15498 5.43888 9.21582L7.44453 11.2378C7.50331 11.2972 7.58347 11.3307 7.66709 11.3307C7.75071 11.3307 7.83084 11.2972 7.88962 11.2378L9.89493 9.21582Z" fill="black"/>
</svg>
